<?xml version="1.0" standalone="no"?>
<!DOCTYPE svg PUBLIC "-//W3C//DTD SVG 20010904//EN"
 "http://www.w3.org/TR/2001/REC-SVG-20010904/DTD/svg10.dtd">
<svg version="1.0" xmlns="http://www.w3.org/2000/svg"
 width="629.000000pt" height="629.000000pt" viewBox="0 0 629.000000 629.000000"
 preserveAspectRatio="xMidYMid meet">
<metadata>
Created by potrace 1.11, written by Peter Selinger 2001-2013
</metadata>
<g transform="translate(0.000000,629.000000) scale(0.100000,-0.100000)"
fill="#000000" stroke="none">
<path d="M2860 6050 c-168 -31 -231 -230 -110 -347 18 -18 52 -39 74 -47 l41
-14 -62 -2 c-85 -3 -223 -16 -263 -25 -3 -1 -25 -5 -50 -9 -411 -71 -840 -288
-1141 -577 -95 -91 -117 -143 -97 -232 19 -91 102 -157 195 -157 66 0 104 21
206 112 119 105 121 107 225 177 201 135 475 243 717 281 175 28 428 30 565 5
8 -1 31 -5 50 -8 171 -28 431 -120 552 -194 21 -13 40 -23 43 -23 3 0 38 -21
78 -47 478 -312 788 -827 834 -1383 44 -535 -132 -1036 -502 -1430 -68 -73
-86 -110 -86 -175 0 -137 134 -238 258 -193 l42 15 -16 -21 c-29 -38 -232
-193 -347 -265 -94 -59 -241 -131 -364 -180 -101 -40 -326 -105 -407 -116 -22
-4 -47 -8 -55 -10 -14 -4 -76 -11 -165 -20 -22 -2 -80 -5 -129 -6 -49 -1 -105
-7 -125 -13 -46 -14 -113 -81 -127 -127 -14 -45 -9 -121 11 -158 20 -39 91
-99 124 -105 28 -5 -178 3 -219 8 -14 2 -52 7 -85 10 -33 4 -67 9 -77 12 -9 3
-40 9 -70 14 -87 15 -102 19 -227 55 -385 111 -784 336 -1056 596 -33 32 -73
69 -90 83 -102 88 -261 54 -319 -68 -22 -47 -20 -128 3 -174 40 -79 298 -300
523 -449 339 -224 798 -403 1173 -458 22 -3 65 -10 95 -15 177 -30 602 -32
780 -5 14 2 45 7 70 10 84 11 204 35 305 61 55 14 107 27 115 29 53 11 256 86
371 137 428 186 818 480 1114 837 120 146 128 156 232 316 75 116 226 405 256
489 90 254 146 440 162 540 3 17 12 68 20 112 49 268 53 680 9 947 -3 20 -7
47 -9 60 -12 97 -70 332 -117 472 -72 216 -201 490 -299 638 -22 32 -39 60
-39 63 0 5 -160 226 -169 234 -3 3 -28 32 -56 65 -90 109 -199 216 -235 232
-92 39 -202 4 -254 -81 -25 -39 -30 -58 -30 -106 1 -37 7 -68 17 -84 10 -14
17 -28 17 -31 0 -5 -63 50 -109 96 -35 35 -181 145 -278 210 -105 71 -301 177
-413 224 -36 15 -78 33 -95 40 -59 25 -300 99 -360 111 -75 15 -144 27 -168
30 -15 2 -56 8 -90 14 -34 5 -118 13 -187 16 -69 3 -129 7 -135 8 -5 1 -26 -1
-45 -4z"/>
<path d="M3367 4809 c-95 -15 -186 -78 -227 -159 -53 -103 -38 -250 32 -327
11 -12 18 -28 15 -35 -2 -7 -64 -112 -136 -232 l-130 -220 51 -28 c28 -15 56
-33 64 -39 13 -11 34 -5 34 11 0 4 18 37 40 71 22 35 44 73 49 84 33 69 170
280 181 277 37 -9 116 -2 165 13 78 25 141 83 178 165 26 58 29 72 24 136 -6
87 -38 155 -97 208 -64 58 -160 87 -243 75z"/>
<path d="M1657 4379 c-70 -11 -131 -44 -181 -100 -76 -84 -98 -201 -60 -311
22 -62 97 -143 159 -173 57 -26 168 -31 225 -10 25 9 52 18 60 21 9 2 55 -35
114 -90 l99 -94 47 51 c26 29 49 54 51 57 2 3 -41 48 -96 100 l-100 96 17 49
c75 218 -107 437 -335 404z"/>
<path d="M2567 3718 c-263 -33 -456 -253 -457 -517 0 -287 220 -516 507 -525
288 -9 528 215 537 503 11 323 -268 580 -587 539z m96 -253 c20 -8 23 -55 5
-73 -9 -9 -1 -34 37 -112 27 -55 53 -99 58 -97 5 1 31 20 57 42 41 33 48 44
44 66 -6 34 26 64 60 55 45 -11 46 -81 1 -92 -27 -7 -29 -10 -50 -124 -12 -63
-17 -79 -28 -82 -7 -2 -109 -3 -227 -2 l-214 1 -21 97 c-17 82 -24 99 -44 109
-39 20 -47 41 -27 72 13 19 24 25 44 23 30 -3 57 -45 41 -64 -6 -8 7 -26 43
-58 28 -25 55 -46 59 -46 4 0 30 44 57 98 44 87 48 100 36 117 -19 26 -18 41
5 64 19 19 31 21 64 6z m195 -493 c7 -49 -5 -52 -229 -52 -188 0 -209 2 -217
18 -4 9 -7 23 -6 30 1 6 2 16 3 20 0 5 101 8 224 8 l222 -1 3 -23z"/>
<path d="M3890 3348 c-61 -24 -155 -109 -166 -152 -6 -24 -9 -26 -53 -21 -68
6 -157 15 -231 21 -36 3 -75 7 -87 10 -21 4 -23 0 -24 -33 0 -21 -3 -57 -5
-80 -5 -43 -5 -43 28 -44 18 0 42 -2 53 -4 11 -1 52 -6 90 -10 39 -3 97 -9
130 -12 33 -3 62 -7 64 -9 2 -2 14 -28 26 -58 53 -131 167 -204 302 -194 254
18 377 314 210 504 -81 92 -220 126 -337 82z"/>
<path d="M1705 2971 l-230 -78 -42 44 c-62 64 -120 87 -218 87 -67 0 -88 -4
-130 -26 -50 -26 -107 -80 -137 -128 -24 -39 -41 -136 -33 -188 15 -99 80
-188 170 -232 41 -21 65 -25 135 -25 72 0 93 4 136 27 97 51 163 156 166 265
1 28 4 29 225 103 124 41 229 78 235 81 10 6 -30 150 -41 148 -4 0 -109 -36
-236 -78z"/>
<path d="M2810 2524 c-25 -7 -57 -15 -71 -18 -25 -6 -26 -8 -18 -43 5 -21 20
-85 33 -143 14 -58 28 -120 31 -139 3 -19 8 -38 10 -42 3 -4 -8 -15 -23 -24
-76 -49 -132 -148 -136 -242 -12 -276 324 -422 520 -226 115 115 115 306 1
426 -40 42 -125 85 -175 89 -37 3 -33 -9 -82 213 -18 83 -36 153 -39 156 -3 3
-26 0 -51 -7z"/>
</g>
</svg>
