<svg xmlns="http://www.w3.org/2000/svg" viewBox="0 0 612.54 780.9"><defs><style>.cls-1{fill:#de0000;}.cls-2{fill:#ffcf00;}.cls-3{font-size:100px;font-family:HelveticaNeue-Bold, Helvetica Neue;font-weight:700;}.cls-4{letter-spacing:-0.02em;}.cls-5{font-family:HelveticaNeue-BoldItalic, Helvetica Neue;font-style:italic;}.cls-6{fill:none;}</style></defs><g id="Layer_2" data-name="Layer 2"><g id="Layer_1-2" data-name="Layer 1"><path d="M509,79.43a20.41,20.41,0,0,1,14,6.18c119.28,119.28,119.28,313.32,0,432.6s-313.32,119.29-432.61,0a20.42,20.42,0,0,1,28.44-29.3l.43.44A265.07,265.07,0,0,0,494.21,114.48a20.42,20.42,0,0,1,14.83-35Z"/><path class="cls-1" d="M306.79,36.81a265.1,265.1,0,0,1,0,530.2,20.41,20.41,0,1,1-.63-40.82h.64A224,224,0,0,0,500.92,414.06v0l0,0a224,224,0,0,0,0-224.24l0,0v0A224,224,0,0,0,306.8,77.62a20.42,20.42,0,0,1-.62-40.83A5.63,5.63,0,0,0,306.79,36.81Z"/><path class="cls-2" d="M306.79,77.82a223.69,223.69,0,0,1,158.65,65.62c87.34,87.33,87.32,229.67,0,317.13A20.41,20.41,0,1,1,436.29,432l.28-.28A183.48,183.48,0,1,0,177,172.3a20.42,20.42,0,0,1-29.31-28.43l.44-.43A223.43,223.43,0,0,1,306.79,77.82Z"/><path d="M235.71,268.78l-20.65-19.51A30.22,30.22,0,0,0,219,234.61a30.82,30.82,0,1,0-14.43,25.91L225.14,280A70.29,70.29,0,0,1,235.71,268.78Z"/><path d="M323.06,266.34l27.44-46.18a30.28,30.28,0,1,0-13.31-7.77l-27.35,46.05A68.72,68.72,0,0,1,323.06,266.34Z"/><path d="M417.7,305A30.59,30.59,0,0,0,389,325l-38.13-3.76c0,.29,0,.56,0,.85a70.25,70.25,0,0,1-1.54,14.51l38.11,3.76A30.58,30.58,0,1,0,417.7,305Z"/><path d="M312.49,425.42,304,388.18a69.61,69.61,0,0,1-15,3.48l8.54,37.25a30.53,30.53,0,1,0,15-3.49Z"/><path d="M212.53,336.91l-47.46,15.9a30.58,30.58,0,1,0,5,16.71c0-.71-.15-1.36-.21-2l47.61-16A69.85,69.85,0,0,1,212.53,336.91Z"/><path d="M281,269.61a52.52,52.52,0,1,0,52.52,52.52A52.51,52.51,0,0,0,281,269.61Zm22.79,76.57a3.74,3.74,0,0,1-3.11,3.71,2.15,2.15,0,0,0-.27.1H261.55l-.51-.14a3.73,3.73,0,0,1-2.86-3.49c-.05-1.24,0-2.47,0-3.71a2,2,0,0,1,0-.27h45.54v.87C303.75,344.22,303.76,345.2,303.74,346.18Zm9.86-32.53c-.82,2.33-3,3.59-5.8,3.32-.2.95-.41,1.92-.61,2.88-1.19,5.63-2.39,11.27-3.55,16.91-.1.46-.28.55-.71.55H259c-.48,0-.63-.15-.73-.6-1.32-6.38-2.67-12.76-4-19.13,0-.19-.09-.38-.13-.51a13.79,13.79,0,0,1-2.17-.19,4.94,4.94,0,0,1-3.78-3.68c0-.15-.1-.29-.15-.44V311.2a5.92,5.92,0,0,1,1.57-2.89,5.05,5.05,0,0,1,7.68,6.49l-.28.43,11.3,9.4,10.35-20.77a5.09,5.09,0,1,1,4.64,0l10.35,20.76,11.29-9.39c-1.61-2.71-1.47-5.1.38-6.9a5.07,5.07,0,0,1,8.31,5.31Z"/><text class="cls-3" transform="translate(94.01 732.8)">co<tspan class="cls-4" x="118.5" y="0">r</tspan><tspan x="155.6" y="0">on</tspan><tspan class="cls-5" x="276" y="0">api</tspan></text><circle class="cls-6" cx="304.21" cy="304.21" r="304.21"/></g></g></svg>