<svg width="280" height="303" viewBox="0 0 280 303" fill="none" xmlns="http://www.w3.org/2000/svg">
<path d="M224.845 22.5702C227.655 22.6502 230.315 23.8302 232.275 25.8402C295.415 88.9802 295.415 191.69 232.275 254.83C169.135 317.97 66.425 317.97 3.28496 254.83C-1.00504 250.67 -1.10504 243.83 3.05496 239.55C7.21496 235.26 14.055 235.16 18.335 239.32C18.415 239.4 18.485 239.47 18.565 239.55C73.445 294.43 162.105 294.43 216.995 239.55C271.875 184.67 271.875 96.0102 216.995 41.1202C212.715 36.9602 212.615 30.1202 216.775 25.8402C218.885 23.6702 221.815 22.4802 224.845 22.5702Z" fill="black"/>
<path d="M117.785 0.0100002C167.845 0.0100002 214.255 26.76 239.255 70.17C264.335 113.57 264.335 167.1 239.255 210.5C214.255 253.91 167.845 280.66 117.785 280.66C111.815 280.75 106.905 275.99 106.815 270.02C106.725 264.05 111.485 259.14 117.455 259.05C117.565 259.05 117.675 259.05 117.795 259.05C160.175 259.05 199.405 236.43 220.545 199.7V199.69L220.555 199.68C241.785 162.94 241.785 117.71 220.555 80.98L220.545 80.97V80.96C199.405 44.24 160.175 21.61 117.795 21.61C111.825 21.7 106.915 16.94 106.825 10.97C106.735 5 111.495 0.09 117.465 0C117.555 0.01 117.665 0.0100002 117.785 0.0100002Z" fill="#DE0000"/>
<path d="M117.785 21.7197C148.195 21.7197 178.615 33.2997 201.765 56.4497C247.995 102.68 247.985 178.02 201.775 224.32C197.605 228.59 190.755 228.66 186.495 224.48C182.225 220.31 182.155 213.46 186.335 209.2C186.385 209.15 186.435 209.1 186.485 209.05C224.455 171.01 224.455 109.69 186.495 71.7297C148.445 33.6797 87.1551 33.6797 49.1051 71.7297C44.9451 76.0097 38.1051 76.1097 33.8251 71.9597C29.5451 67.8097 29.4451 60.9597 33.5951 56.6797C33.6751 56.5997 33.7451 56.5297 33.8251 56.4497C56.9551 33.2897 87.3651 21.7197 117.785 21.7197Z" fill="#FFCF00"/>
</svg>
